<mxfile host="app.diagrams.net" modified="2022-08-24T08:17:18.967Z" agent="5.0 (Macintosh; Intel Mac OS X 10_15_7) AppleWebKit/537.36 (KHTML, like Gecko) Chrome/104.0.0.0 Safari/537.36" etag="YwEEATq3GcyPrB7BEsns" version="20.2.4" type="github">
  <diagram id="Y10KTw8onEUSVF8f1dXt" name="第 1 页">
    <mxGraphModel dx="946" dy="562" grid="1" gridSize="10" guides="1" tooltips="1" connect="1" arrows="1" fold="1" page="1" pageScale="1" pageWidth="827" pageHeight="1169" math="0" shadow="0">
      <root>
        <mxCell id="0" />
        <mxCell id="1" parent="0" />
        <mxCell id="L5pGZmPXq_4EWZt_TWYV-1" value="ESTABLISH" style="rounded=0;whiteSpace=wrap;html=1;fontSize=16;fillColor=#d5e8d4;strokeColor=#82b366;gradientColor=#97d077;" vertex="1" parent="1">
          <mxGeometry x="120" y="170" width="120" height="110" as="geometry" />
        </mxCell>
        <mxCell id="L5pGZmPXq_4EWZt_TWYV-2" value="客户端" style="aspect=fixed;perimeter=ellipsePerimeter;html=1;align=center;shadow=0;dashed=0;spacingTop=3;image;image=img/lib/active_directory/home_page.svg;fontSize=16;" vertex="1" parent="1">
          <mxGeometry x="141.11" y="70" width="77.78" height="70" as="geometry" />
        </mxCell>
        <mxCell id="L5pGZmPXq_4EWZt_TWYV-3" value="服务端" style="aspect=fixed;perimeter=ellipsePerimeter;html=1;align=center;shadow=0;dashed=0;spacingTop=3;image;image=img/lib/active_directory/web_server.svg;fontSize=16;" vertex="1" parent="1">
          <mxGeometry x="586.89" y="50" width="64" height="80" as="geometry" />
        </mxCell>
        <mxCell id="L5pGZmPXq_4EWZt_TWYV-4" value="ESTABLISH" style="rounded=0;whiteSpace=wrap;html=1;fontSize=16;fillColor=#d5e8d4;strokeColor=#82b366;gradientColor=#97d077;" vertex="1" parent="1">
          <mxGeometry x="558.89" y="160" width="120" height="120" as="geometry" />
        </mxCell>
        <mxCell id="L5pGZmPXq_4EWZt_TWYV-5" value="FIN_WAIT_1" style="rounded=0;whiteSpace=wrap;html=1;fontSize=16;fillColor=#fff2cc;strokeColor=#d6b656;gradientColor=#ffd966;" vertex="1" parent="1">
          <mxGeometry x="120" y="280" width="120" height="60" as="geometry" />
        </mxCell>
        <mxCell id="L5pGZmPXq_4EWZt_TWYV-6" value="&lt;b style=&quot;color: rgb(255, 153, 51); font-size: 16px;&quot;&gt;FIN&lt;br style=&quot;font-size: 16px;&quot;&gt;seq = x，ack = y&lt;/b&gt;" style="rounded=0;orthogonalLoop=1;jettySize=auto;html=1;fontSize=16;exitX=1;exitY=0;exitDx=0;exitDy=0;fillColor=#ffcd28;gradientColor=#ffa500;strokeColor=#d79b00;strokeWidth=2;entryX=0;entryY=1;entryDx=0;entryDy=0;" edge="1" parent="1" target="L5pGZmPXq_4EWZt_TWYV-4">
          <mxGeometry x="-0.125" y="10" relative="1" as="geometry">
            <mxPoint x="450" y="280" as="targetPoint" />
            <mxPoint as="offset" />
            <mxPoint x="240" y="280" as="sourcePoint" />
          </mxGeometry>
        </mxCell>
        <mxCell id="L5pGZmPXq_4EWZt_TWYV-7" value="CLOSE_WAIT" style="rounded=0;whiteSpace=wrap;html=1;fontSize=16;fillColor=#e6d0de;strokeColor=#996185;gradientColor=#d5739d;" vertex="1" parent="1">
          <mxGeometry x="558.89" y="280" width="120" height="350" as="geometry" />
        </mxCell>
        <mxCell id="L5pGZmPXq_4EWZt_TWYV-8" value="&lt;b style=&quot;font-size: 16px;&quot;&gt;&lt;font color=&quot;#cc00cc&quot;&gt;ACK&lt;br style=&quot;font-size: 16px;&quot;&gt;seq = y，ack = x+1&lt;/font&gt;&lt;/b&gt;" style="rounded=0;orthogonalLoop=1;jettySize=auto;html=1;fontSize=16;fillColor=#e6d0de;gradientColor=#d5739d;strokeColor=#996185;strokeWidth=2;entryX=1;entryY=1;entryDx=0;entryDy=0;" edge="1" parent="1" target="L5pGZmPXq_4EWZt_TWYV-5">
          <mxGeometry x="-0.1061" relative="1" as="geometry">
            <mxPoint x="250" y="340" as="targetPoint" />
            <mxPoint as="offset" />
            <mxPoint x="550" y="340" as="sourcePoint" />
          </mxGeometry>
        </mxCell>
        <mxCell id="L5pGZmPXq_4EWZt_TWYV-9" value="FIN_WAIT_2" style="rounded=0;whiteSpace=wrap;html=1;fontSize=16;fillColor=#ffcd28;strokeColor=#d79b00;gradientColor=#ffa500;" vertex="1" parent="1">
          <mxGeometry x="120" y="340" width="120" height="280" as="geometry" />
        </mxCell>
        <mxCell id="L5pGZmPXq_4EWZt_TWYV-10" value="shutdown() 关闭连接&lt;br&gt;只关闭发送方向" style="text;html=1;align=center;verticalAlign=middle;resizable=0;points=[];autosize=1;strokeColor=#36393d;fillColor=#ffff88;fontSize=15;" vertex="1" parent="1">
          <mxGeometry x="100" y="240" width="160" height="50" as="geometry" />
        </mxCell>
        <mxCell id="L5pGZmPXq_4EWZt_TWYV-14" value="死等。。。。" style="text;html=1;align=center;verticalAlign=middle;resizable=0;points=[];autosize=1;strokeColor=#b85450;fillColor=#f8cecc;fontSize=18;" vertex="1" parent="1">
          <mxGeometry x="115" y="620" width="130" height="40" as="geometry" />
        </mxCell>
      </root>
    </mxGraphModel>
  </diagram>
</mxfile>
